#!OML:ASF G:\JayActor3\Patient Classification 1\Patient 1\Session 6\male.ASF
:FULLY-SPECIFIED
:DEGREES
609
root 39.9926 14.8645 9.17363 187.616 -46.2865 -178.383
lowerback 17.4838 0.710338 3.01121
upperback 13.8681 -0.582953 -0.231325
thorax 5.1762 -0.806445 -1.93133
lowerneck 9.55238 0.20646 2.83256
upperneck -19.7291 0.604383 1.23472
head -7.64368 -0.244268 -0.0969004
rclavicle 2.43511e-015 -3.32467e-014
rhumerus -14.1454 11.3253 -86.9783
rradius 82.1817
rwrist 11.2013
rhand -30.2903 -4.59119
rfingers 7.12502
rthumb -3.5978 -34.5406
lclavicle 2.43511e-015 -3.32467e-014
lhumerus -18.9249 -5.29647 79.0519
lradius 79.1823
lwrist 17.9429
lhand -24.2229 8.24343
lfingers 7.12502
lthumb 2.26207 38.2112
rfemur -24.2879 -1.03928 27.6574
rtibia 67.2854
rfoot -26.6879 -6.40907
rtoes -19.9981
lfemur -49.0667 7.58339 -28.8664
ltibia 53.5735
lfoot -13.3874 1.02156
ltoes 10.4141
610
root 39.9573 14.8642 9.15052 187.609 -46.2242 -178.37
lowerback 17.4819 0.72357 2.97286
upperback 13.8765 -0.572805 -0.251548
thorax 5.18653 -0.804061 -1.93287
lowerneck 9.54658 0.22556 2.82982
upperneck -19.7252 0.634048 1.25598
head -7.64122 -0.232023 -0.092213
rclavicle -7.33018e-014 7.32522e-014
rhumerus -14.2076 11.3075 -87.0239
rradius 82.1408
rwrist 11.1878
rhand -30.2614 -4.58601
rfingers 7.12502
rthumb -3.56991 -34.5359
lclavicle -7.33018e-014 7.32522e-014
lhumerus -18.8125 -5.29561 79.0002
lradius 79.1999
lwrist 17.9201
lhand -24.2576 8.21193
lfingers 7.12502
lthumb 2.22853 38.18
rfemur -24.2566 -1.17763 27.5946
rtibia 67.4366
rfoot -26.4028 -6.34921
rtoes -20.0729
lfemur -48.9824 7.63519 -28.8602
ltibia 53.7406
lfoot -13.6005 0.956943
ltoes 10.4459
611
root 39.9222 14.8636 9.12756 187.616 -46.1637 -178.369
lowerback 17.4767 0.734257 2.92919
upperback 13.8848 -0.566445 -0.274712
thorax 5.19807 -0.80372 -1.9341
lowerneck 9.53445 0.247338 2.81496
upperneck -19.7206 0.666333 1.28481
head -7.63746 -0.21841 -0.0832501
rclavicle 8.17005e-014 -5.41191e-014
rhumerus -14.2664 11.2927 -87.0722
rradius 82.0987
rwrist 11.1922
rhand -30.2347 -4.57075
rfingers 7.12502
rthumb -3.54411 -34.521
lclavicle 8.17005e-014 -5.41191e-014
lhumerus -18.6948 -5.29259 78.9452
lradius 79.2145
lwrist 17.8937
lhand -24.2206 8.22163
lfingers 7.12502
lthumb 2.26429 38.1894
rfemur -24.2415 -1.32148 27.5212
rtibia 67.6018
rfoot -26.1078 -6.28601
rtoes -20.1388
lfemur -48.9028 7.69287 -28.8662
ltibia 53.9066
lfoot -13.8123 0.891186
ltoes 10.428
612
root 39.8873 14.8629 9.10452 187.633 -46.1007 -178.384
lowerback 17.4719 0.744535 2.87449
upperback 13.8917 -0.561588 -0.300424
thorax 5.20742 -0.804801 -1.93163
lowerneck 9.52341 0.266658 2.79224
upperneck -19.7142 0.694328 1.31539
head -7.63336 -0.206317 -0.0720142
rclavicle -4.02539e-014 -4.67144e-015
rhumerus -14.3283 11.2837 -87.1223
rradius 82.057
rwrist 11.211
rhand -30.2128 -4.55204
rfingers 7.12502
rthumb -3.52296 -34.5027
lclavicle -4.02539e-014 -4.67144e-015
lhumerus -18.5824 -5.28769 78.8895
lradius 79.2291
lwrist 17.8713
lhand -24.2023 8.21812
lfingers 7.12502
lthumb 2.28198 38.1857
rfemur -24.2364 -1.46454 27.4335
rtibia 67.7802
rfoot -25.7992 -6.21819
rtoes -20.2116
lfemur -48.8188 7.76535 -28.8881
ltibia 54.0675
lfoot -14.0282 0.823751
ltoes 10.3645
613
root 39.8527 14.8621 9.08158 187.661 -46.0355 -178.41
lowerback 17.4767 0.752352 2.80293
upperback 13.8894 -0.560125 -0.3246
thorax 5.20107 -0.80875 -1.91727
lowerneck 9.53316 0.28979 2.75171
upperneck -19.7182 0.727144 1.35322
head -7.63648 -0.191481 -0.0558747
rclavicle -3.72721e-014 2.65378e-014
rhumerus -14.4044 11.2918 -87.1736
rradius 82.0199
rwrist 11.2385
rhand -30.1979 -4.53323
rfingers 7.12502
rthumb -3.50854 -34.4841
lclavicle -3.72721e-014 2.65378e-014
lhumerus -18.4867 -5.26949 78.8367
lradius 79.2466
lwrist 17.8526
lhand -24.1654 8.23327
lfingers 7.12502
lthumb 2.31758 38.2004
rfemur -24.2439 -1.60419 27.3333
rtibia 67.9758
rfoot -25.4827 -6.12133
rtoes -20.235
lfemur -48.7323 7.85047 -28.9234
ltibia 54.22
lfoot -14.2481 0.755679
ltoes 10.2682
